<svg width="253" height="122" viewBox="0 0 253 122" fill="none" xmlns="http://www.w3.org/2000/svg">
<g filter="url(#filter0_d_136_392)">
<rect x="32" y="12" width="189" height="58" rx="12" fill="white" fill-opacity="0.5" shape-rendering="crispEdges"/>
<rect x="32" y="12" width="189" height="58" rx="12" fill="url(#paint0_radial_136_392)" shape-rendering="crispEdges"/>
<rect x="32.5" y="12.5" width="188" height="57" rx="11.5" stroke="white" shape-rendering="crispEdges"/>
<g clip-path="url(#clip0_136_392)">
<path d="M42 23H77.9889V59H42V23Z" fill="#19AA1E"/>
<path fill-rule="evenodd" clip-rule="evenodd" d="M42 23H77.9889V34.8122L42 29.1878V23Z" fill="#FFB919"/>
<path fill-rule="evenodd" clip-rule="evenodd" d="M42 55.0554L77.9889 49.4311V58.9891H42V55.0554Z" fill="#82D714"/>
<path fill-rule="evenodd" clip-rule="evenodd" d="M42 28.4808L54.5667 30.4476C56.1333 29.4531 57.9889 28.9117 60 28.9117C62.7778 28.9117 65.2778 29.9504 67.1 31.7846C67.3333 32.0167 67.5444 32.2598 67.7444 32.5029L77.9889 34.1051V35.5305L68.7778 34.094C69.4667 35.409 69.8333 36.8786 69.8333 38.3592C69.8333 40.2929 69.4 42.2156 68.5111 44.1382L68.4889 44.1935L68.1111 45.0001H67.2111C65.3667 45.0001 64.1333 45.5526 63.3333 46.536C62.7 47.3095 62.3444 48.3482 62.2222 49.4752V49.5084L62.2 49.6852L62.1889 49.7625L62.1778 49.9172C62.1333 50.4255 62.1 50.8454 62.0889 51.199L78 48.7128V50.1382L42 55.7736V54.3482L57.9333 51.862L57.9222 51.5415V51.4531V51.409V51.3427C57.9 50.8454 57.8667 50.3482 57.8111 49.8509L57.8 49.7404L57.7778 49.5415C57.6667 48.4034 57.3 47.3537 56.6778 46.5692C55.8889 45.5857 54.6667 45.0222 52.8333 45.0112H51.8889L51.5111 44.2045C50.6 42.2487 50.1556 40.315 50.1556 38.3592C50.1556 35.9062 51.1444 33.5415 52.9 31.7846C52.9556 31.7294 53 31.6852 53.0556 31.6299L42 29.8951V28.4808Z" fill="white"/>
<path fill-rule="evenodd" clip-rule="evenodd" d="M60 30.315C65.0222 30.315 68.4333 34.1824 68.4333 38.3592C68.4333 40.0388 68.0667 41.7736 67.2111 43.6079C62.2667 43.6079 61.0444 47.1548 60.8111 49.3758L60.8 49.5195C60.7222 50.315 60.6778 50.9559 60.6667 51.4311L59.3222 51.641V51.5968C59.3222 51.0885 59.2667 50.3813 59.1778 49.4753V49.4311C58.9667 47.2101 57.7667 43.5968 52.7778 43.5968C51.9222 41.7736 51.5555 40.0277 51.5555 38.3482C51.5555 34.1824 54.9667 30.315 60 30.315Z" fill="#0073FA"/>
</g>
<path d="M91.08 33.304C91.304 33.108 91.5513 32.8933 91.822 32.66C92.102 32.4267 92.3633 32.184 92.606 31.932C92.858 31.6707 93.0633 31.3907 93.222 31.092C93.39 30.7933 93.474 30.4713 93.474 30.126C93.474 29.622 93.3247 29.216 93.026 28.908C92.7273 28.6 92.298 28.446 91.738 28.446C91.29 28.446 90.912 28.5487 90.604 28.754C90.296 28.9593 90.1047 29.2347 90.03 29.58H88.434C88.4713 29.1507 88.588 28.768 88.784 28.432C88.9893 28.096 89.246 27.8207 89.554 27.606C89.862 27.3913 90.198 27.2373 90.562 27.144C90.9353 27.0413 91.36 26.99 91.836 26.99C92.284 26.99 92.704 27.0507 93.096 27.172C93.488 27.2933 93.8287 27.4753 94.118 27.718C94.4167 27.9607 94.65 28.2687 94.818 28.642C94.9953 29.006 95.084 29.4353 95.084 29.93C95.084 30.322 95.0327 30.6813 94.93 31.008C94.8273 31.3347 94.6873 31.638 94.51 31.918C94.3327 32.198 94.1273 32.4593 93.894 32.702C93.67 32.9447 93.432 33.1733 93.18 33.388C92.844 33.6773 92.5453 33.9293 92.284 34.144C92.032 34.3493 91.8033 34.536 91.598 34.704C91.3927 34.872 91.206 35.026 91.038 35.166C90.87 35.2967 90.7113 35.4273 90.562 35.558H95.084V37H88.35V35.67L91.08 33.304ZM96.7189 37V27.102H103.341V28.558H98.3429V37H96.7189ZM104.686 37V27.102H106.31V34.368L111.392 27.102H112.848V37H111.224V29.804L106.142 37H104.686ZM119.121 28.432C118.599 28.432 118.146 28.53 117.763 28.726C117.39 28.922 117.082 29.1833 116.839 29.51C116.597 29.8367 116.415 30.2193 116.293 30.658C116.181 31.0873 116.125 31.54 116.125 32.016C116.125 32.5013 116.186 32.9633 116.307 33.402C116.429 33.8407 116.611 34.228 116.853 34.564C117.105 34.8907 117.423 35.152 117.805 35.348C118.188 35.544 118.641 35.642 119.163 35.642C119.807 35.642 120.344 35.502 120.773 35.222C121.212 34.942 121.487 34.564 121.599 34.088H123.223C123.149 34.564 122.99 34.9887 122.747 35.362C122.514 35.7353 122.22 36.0527 121.865 36.314C121.511 36.566 121.1 36.762 120.633 36.902C120.167 37.0327 119.667 37.098 119.135 37.098C118.361 37.098 117.679 36.972 117.091 36.72C116.513 36.468 116.027 36.118 115.635 35.67C115.243 35.222 114.949 34.69 114.753 34.074C114.557 33.458 114.459 32.7813 114.459 32.044C114.459 31.3253 114.557 30.658 114.753 30.042C114.959 29.4167 115.257 28.88 115.649 28.432C116.041 27.9747 116.527 27.62 117.105 27.368C117.693 27.1067 118.375 26.976 119.149 26.976C120.241 26.976 121.142 27.2327 121.851 27.746C122.561 28.2593 122.99 29.0153 123.139 30.014H121.543C121.422 29.5287 121.151 29.146 120.731 28.866C120.311 28.5767 119.775 28.432 119.121 28.432Z" fill="#060646"/>
<path d="M91.08 33.304C91.304 33.108 91.5513 32.8933 91.822 32.66C92.102 32.4267 92.3633 32.184 92.606 31.932C92.858 31.6707 93.0633 31.3907 93.222 31.092C93.39 30.7933 93.474 30.4713 93.474 30.126C93.474 29.622 93.3247 29.216 93.026 28.908C92.7273 28.6 92.298 28.446 91.738 28.446C91.29 28.446 90.912 28.5487 90.604 28.754C90.296 28.9593 90.1047 29.2347 90.03 29.58H88.434C88.4713 29.1507 88.588 28.768 88.784 28.432C88.9893 28.096 89.246 27.8207 89.554 27.606C89.862 27.3913 90.198 27.2373 90.562 27.144C90.9353 27.0413 91.36 26.99 91.836 26.99C92.284 26.99 92.704 27.0507 93.096 27.172C93.488 27.2933 93.8287 27.4753 94.118 27.718C94.4167 27.9607 94.65 28.2687 94.818 28.642C94.9953 29.006 95.084 29.4353 95.084 29.93C95.084 30.322 95.0327 30.6813 94.93 31.008C94.8273 31.3347 94.6873 31.638 94.51 31.918C94.3327 32.198 94.1273 32.4593 93.894 32.702C93.67 32.9447 93.432 33.1733 93.18 33.388C92.844 33.6773 92.5453 33.9293 92.284 34.144C92.032 34.3493 91.8033 34.536 91.598 34.704C91.3927 34.872 91.206 35.026 91.038 35.166C90.87 35.2967 90.7113 35.4273 90.562 35.558H95.084V37H88.35V35.67L91.08 33.304ZM96.7189 37V27.102H103.341V28.558H98.3429V37H96.7189ZM104.686 37V27.102H106.31V34.368L111.392 27.102H112.848V37H111.224V29.804L106.142 37H104.686ZM119.121 28.432C118.599 28.432 118.146 28.53 117.763 28.726C117.39 28.922 117.082 29.1833 116.839 29.51C116.597 29.8367 116.415 30.2193 116.293 30.658C116.181 31.0873 116.125 31.54 116.125 32.016C116.125 32.5013 116.186 32.9633 116.307 33.402C116.429 33.8407 116.611 34.228 116.853 34.564C117.105 34.8907 117.423 35.152 117.805 35.348C118.188 35.544 118.641 35.642 119.163 35.642C119.807 35.642 120.344 35.502 120.773 35.222C121.212 34.942 121.487 34.564 121.599 34.088H123.223C123.149 34.564 122.99 34.9887 122.747 35.362C122.514 35.7353 122.22 36.0527 121.865 36.314C121.511 36.566 121.1 36.762 120.633 36.902C120.167 37.0327 119.667 37.098 119.135 37.098C118.361 37.098 117.679 36.972 117.091 36.72C116.513 36.468 116.027 36.118 115.635 35.67C115.243 35.222 114.949 34.69 114.753 34.074C114.557 33.458 114.459 32.7813 114.459 32.044C114.459 31.3253 114.557 30.658 114.753 30.042C114.959 29.4167 115.257 28.88 115.649 28.432C116.041 27.9747 116.527 27.62 117.105 27.368C117.693 27.1067 118.375 26.976 119.149 26.976C120.241 26.976 121.142 27.2327 121.851 27.746C122.561 28.2593 122.99 29.0153 123.139 30.014H121.543C121.422 29.5287 121.151 29.146 120.731 28.866C120.311 28.5767 119.775 28.432 119.121 28.432Z" fill="url(#paint1_radial_136_392)" fill-opacity="0.22"/>
<path d="M95.2693 45.6392C95.5512 45.0069 96.4488 45.0069 96.7307 45.6392L98.0222 48.5367C98.1385 48.7975 98.385 48.9766 98.6689 49.0065L101.824 49.3395C102.512 49.4122 102.79 50.2658 102.275 50.7294L99.9187 52.853C99.7066 53.0442 99.6125 53.3339 99.6717 53.6133L100.33 56.7165C100.474 57.3938 99.7474 57.9214 99.1476 57.5754L96.3997 55.9905C96.1523 55.8479 95.8477 55.8479 95.6003 55.9905L92.8524 57.5754C92.2526 57.9214 91.5264 57.3938 91.6701 56.7165L92.3283 53.6133C92.3875 53.3339 92.2934 53.0442 92.0813 52.853L89.7248 50.7294C89.2104 50.2658 89.4878 49.4122 90.1764 49.3395L93.3311 49.0065C93.615 48.9766 93.8615 48.7975 93.9778 48.5367L95.2693 45.6392Z" fill="#FFC700"/>
<path d="M111.269 45.6392C111.551 45.0069 112.449 45.0069 112.731 45.6392L114.022 48.5367C114.138 48.7975 114.385 48.9766 114.669 49.0065L117.824 49.3395C118.512 49.4122 118.79 50.2658 118.275 50.7294L115.919 52.853C115.707 53.0442 115.612 53.3339 115.672 53.6133L116.33 56.7165C116.474 57.3938 115.747 57.9214 115.148 57.5754L112.4 55.9905C112.152 55.8479 111.848 55.8479 111.6 55.9905L108.852 57.5754C108.253 57.9214 107.526 57.3938 107.67 56.7165L108.328 53.6133C108.388 53.3339 108.293 53.0442 108.081 52.853L105.725 50.7294C105.21 50.2658 105.488 49.4122 106.176 49.3395L109.331 49.0065C109.615 48.9766 109.862 48.7975 109.978 48.5367L111.269 45.6392Z" fill="#FFC700"/>
<path d="M127.269 45.6392C127.551 45.0069 128.449 45.0069 128.731 45.6392L130.022 48.5367C130.138 48.7975 130.385 48.9766 130.669 49.0065L133.824 49.3395C134.512 49.4122 134.79 50.2658 134.275 50.7294L131.919 52.853C131.707 53.0442 131.612 53.3339 131.672 53.6133L132.33 56.7165C132.474 57.3938 131.747 57.9214 131.148 57.5754L128.4 55.9905C128.152 55.8479 127.848 55.8479 127.6 55.9905L124.852 57.5754C124.253 57.9214 123.526 57.3938 123.67 56.7165L124.328 53.6133C124.388 53.3339 124.293 53.0442 124.081 52.853L121.725 50.7294C121.21 50.2658 121.488 49.4122 122.176 49.3395L125.331 49.0065C125.615 48.9766 125.862 48.7975 125.978 48.5367L127.269 45.6392Z" fill="#FFC700"/>
<path d="M143.269 45.6392C143.551 45.0069 144.449 45.0069 144.731 45.6392L146.022 48.5367C146.138 48.7975 146.385 48.9766 146.669 49.0065L149.824 49.3395C150.512 49.4122 150.79 50.2658 150.275 50.7294L147.919 52.853C147.707 53.0442 147.612 53.3339 147.672 53.6133L148.33 56.7165C148.474 57.3938 147.747 57.9214 147.148 57.5754L144.4 55.9905C144.152 55.8479 143.848 55.8479 143.6 55.9905L140.852 57.5754C140.253 57.9214 139.526 57.3938 139.67 56.7165L140.328 53.6133C140.388 53.3339 140.293 53.0442 140.081 52.853L137.725 50.7294C137.21 50.2658 137.488 49.4122 138.176 49.3395L141.331 49.0065C141.615 48.9766 141.862 48.7975 141.978 48.5367L143.269 45.6392Z" fill="#FFC700"/>
<path d="M159.269 45.6392C159.551 45.0069 160.449 45.0069 160.731 45.6392L162.022 48.5367C162.138 48.7975 162.385 48.9766 162.669 49.0065L165.824 49.3395C166.512 49.4122 166.79 50.2658 166.275 50.7294L163.919 52.853C163.707 53.0442 163.612 53.3339 163.672 53.6133L164.33 56.7165C164.474 57.3938 163.747 57.9214 163.148 57.5754L160.4 55.9905C160.152 55.8479 159.848 55.8479 159.6 55.9905L156.852 57.5754C156.253 57.9214 155.526 57.3938 155.67 56.7165L156.328 53.6133C156.388 53.3339 156.293 53.0442 156.081 52.853L153.725 50.7294C153.21 50.2658 153.488 49.4122 154.176 49.3395L157.331 49.0065C157.615 48.9766 157.862 48.7975 157.978 48.5367L159.269 45.6392Z" fill="#FFC700"/>
<path d="M179.32 41.812L180.31 32.924H189.77V35.696H182.884L182.444 38.908C182.943 38.6587 183.412 38.4827 183.852 38.38C184.307 38.2627 184.827 38.2113 185.414 38.226C186.177 38.2407 186.866 38.3653 187.482 38.6C188.113 38.8347 188.648 39.172 189.088 39.612C189.528 40.052 189.865 40.58 190.1 41.196C190.335 41.7973 190.452 42.4793 190.452 43.242C190.452 44.0927 190.305 44.8553 190.012 45.53C189.719 46.2047 189.315 46.7767 188.802 47.246C188.259 47.7153 187.643 48.0673 186.954 48.302C186.279 48.5367 185.502 48.654 184.622 48.654C183.023 48.654 181.747 48.2873 180.794 47.554C179.841 46.8207 179.276 45.6253 179.1 43.968H182.246C182.378 44.5987 182.657 45.0533 183.082 45.332C183.522 45.6107 184.013 45.7647 184.556 45.794C185.333 45.8233 185.971 45.64 186.47 45.244C186.969 44.848 187.225 44.2247 187.24 43.374C187.255 42.538 187.013 41.9073 186.514 41.482C186.015 41.0567 185.385 40.8587 184.622 40.888C184.167 40.9027 183.742 40.9907 183.346 41.152C182.965 41.3133 182.627 41.5333 182.334 41.812H179.32ZM194.069 44.848C194.626 44.848 195.081 45.0167 195.433 45.354C195.785 45.6913 195.961 46.168 195.961 46.784C195.961 47.4 195.785 47.8693 195.433 48.192C195.081 48.5147 194.626 48.676 194.069 48.676C193.511 48.676 193.049 48.5147 192.683 48.192C192.331 47.8693 192.155 47.4 192.155 46.784C192.155 46.168 192.331 45.6913 192.683 45.354C193.049 45.0167 193.511 44.848 194.069 44.848ZM203.841 32.726C204.736 32.726 205.557 32.88 206.305 33.188C207.068 33.496 207.713 33.98 208.241 34.64C208.784 35.2853 209.202 36.1067 209.495 37.104C209.803 38.1013 209.957 39.2893 209.957 40.668C209.957 42.0613 209.811 43.2567 209.517 44.254C209.224 45.2513 208.813 46.0727 208.285 46.718C207.757 47.3633 207.112 47.84 206.349 48.148C205.601 48.456 204.765 48.61 203.841 48.61C202.917 48.61 202.074 48.456 201.311 48.148C200.563 47.84 199.918 47.3633 199.375 46.718C198.847 46.0727 198.437 45.2513 198.143 44.254C197.865 43.2567 197.725 42.0613 197.725 40.668C197.725 39.2893 197.872 38.1013 198.165 37.104C198.459 36.1067 198.877 35.2853 199.419 34.64C199.962 33.98 200.607 33.496 201.355 33.188C202.103 32.88 202.932 32.726 203.841 32.726ZM203.841 45.794C204.78 45.794 205.513 45.398 206.041 44.606C206.569 43.814 206.833 42.5013 206.833 40.668C206.833 38.8493 206.569 37.544 206.041 36.752C205.513 35.9453 204.78 35.542 203.841 35.542C202.888 35.542 202.147 35.9453 201.619 36.752C201.106 37.544 200.849 38.8493 200.849 40.668C200.849 42.5013 201.106 43.814 201.619 44.606C202.147 45.398 202.888 45.794 203.841 45.794Z" fill="black"/>
</g>
<defs>
<filter id="filter0_d_136_392" x="0" y="0" width="253" height="122" filterUnits="userSpaceOnUse" color-interpolation-filters="sRGB">
<feFlood flood-opacity="0" result="BackgroundImageFix"/>
<feColorMatrix in="SourceAlpha" type="matrix" values="0 0 0 0 0 0 0 0 0 0 0 0 0 0 0 0 0 0 127 0" result="hardAlpha"/>
<feOffset dy="20"/>
<feGaussianBlur stdDeviation="16"/>
<feComposite in2="hardAlpha" operator="out"/>
<feColorMatrix type="matrix" values="0 0 0 0 0.505882 0 0 0 0 0.737255 0 0 0 0 0.839216 0 0 0 0.1 0"/>
<feBlend mode="normal" in2="BackgroundImageFix" result="effect1_dropShadow_136_392"/>
<feBlend mode="normal" in="SourceGraphic" in2="effect1_dropShadow_136_392" result="shape"/>
</filter>
<radialGradient id="paint0_radial_136_392" cx="0" cy="0" r="1" gradientUnits="userSpaceOnUse" gradientTransform="translate(126.368 12) rotate(147.168) scale(75.7069 121.324)">
<stop stop-color="white"/>
<stop offset="0.901397" stop-color="white" stop-opacity="0"/>
</radialGradient>
<radialGradient id="paint1_radial_136_392" cx="0" cy="0" r="1" gradientUnits="userSpaceOnUse" gradientTransform="translate(105.975 22) rotate(130.566) scale(18.632 32.379)">
<stop stop-color="white"/>
<stop offset="0.901397" stop-color="white" stop-opacity="0"/>
</radialGradient>
<clipPath id="clip0_136_392">
<rect x="42" y="23" width="36" height="36" rx="8" fill="white"/>
</clipPath>
</defs>
</svg>
