<svg width="134" height="23" viewBox="0 0 134 23" fill="none" xmlns="http://www.w3.org/2000/svg">
<g clip-path="url(#clip0_136_609)">
<mask id="mask0_136_609" style="mask-type:luminance" maskUnits="userSpaceOnUse" x="0" y="0" width="134" height="23">
<path d="M133.136 0.134766H0.958618V22.0416H133.136V0.134766Z" fill="white"/>
</mask>
<g mask="url(#mask0_136_609)">
<path d="M4.12346 5.61426H10.45L7.28521 11.0902L10.45 16.5661H4.12346L0.958618 11.0902L4.12346 5.61426Z" fill="#060646"/>
<path d="M7.28479 0.134766H13.6144L19.9411 11.0898L13.6144 22.0416H7.28479L13.6144 11.0898L7.28479 0.134766Z" fill="#060646"/>
<path d="M16.7792 5.61035L19.9411 11.0894H13.6144L16.7792 5.61035Z" fill="#060646"/>
<path d="M13.6142 11.0894L10.4498 5.61035H16.7791L13.6142 11.0894Z" fill="#060646"/>
<path d="M4.12346 5.61035L7.28521 11.0895H0.958618L4.12346 5.61035Z" fill="#060646"/>
<path d="M13.6145 11.0898L16.7798 16.5657L10.4501 16.5658L13.6145 11.0898Z" fill="#060646"/>
<path d="M7.28516 11.0898L10.45 16.5657H4.12341L7.28516 11.0898Z" fill="#060646"/>
<path d="M13.6145 0.134766L10.4501 5.61067H16.7793L13.6145 0.134766Z" fill="#060646"/>
<path d="M10.4501 5.61067L7.28479 0.134766H13.6144L10.4501 5.61067Z" fill="#060646"/>
<path d="M16.7797 16.5657L19.9411 11.0898H13.6144L16.7797 16.5657Z" fill="#060646"/>
<path d="M7.28541 11.0902L10.4502 5.61426H4.12366L7.28541 11.0902Z" fill="#060646"/>
<path d="M4.12346 16.5657L7.28521 11.0898H0.958618L4.12346 16.5657Z" fill="#060646"/>
<path d="M13.6145 22.0417L10.4501 16.5658L16.7798 16.5657L13.6145 22.0417Z" fill="#060646"/>
<path d="M10.4501 16.5654L7.28479 22.0413H13.6144L10.4501 16.5654Z" fill="#060646"/>
<path d="M127.687 16.5967H126.944V15.3455H127.564C128.279 15.3455 128.582 15.2905 128.912 14.328L128.994 14.1492L126.312 6.79297H128.1L129.779 12.1005L131.457 6.79297H133.136L130.535 14.1767C129.834 16.088 129.352 16.5967 127.687 16.5967Z" fill="#060646"/>
<path d="M122.725 6.62793C124.349 6.62793 125.752 7.68668 126.041 9.32296H124.445C124.294 8.53918 123.619 7.98918 122.725 7.98918C121.693 7.98918 120.785 8.74543 120.785 10.4917C120.785 12.2517 121.721 13.008 122.684 13.008C123.496 13.008 124.28 12.6505 124.5 11.6605H126.096C125.766 13.393 124.239 14.3692 122.656 14.3692C120.51 14.3692 119.093 12.7055 119.093 10.5055C119.093 8.30543 120.51 6.62793 122.725 6.62793Z" fill="#060646"/>
<path d="M113.137 6.79293V7.82418C113.564 7.05418 114.334 6.62793 115.38 6.62793C117.169 6.62793 117.898 7.78293 117.898 9.54296V14.1905H116.26V9.94171C116.26 8.93793 116.123 7.96168 114.857 7.96168C113.591 7.96168 113.137 8.92418 113.137 10.258V14.1905H111.5V6.79293H113.137Z" fill="#060646"/>
<path d="M110.152 10.9592H104.634C104.744 12.3342 105.708 13.008 106.643 13.008C107.51 13.008 108.17 12.678 108.459 11.9767H110.069C109.739 13.1592 108.611 14.3692 106.712 14.3692C104.332 14.3692 102.97 12.568 102.97 10.4367C102.97 8.20918 104.497 6.62793 106.602 6.62793C108.872 6.62793 110.303 8.48418 110.152 10.9592ZM106.602 7.90668C105.831 7.90668 104.786 8.37418 104.634 9.76296H108.487C108.446 8.60793 107.565 7.90668 106.602 7.90668Z" fill="#060646"/>
<path d="M99.9932 7.78293V6.79293H101.63V13.448C101.63 14.6442 101.328 15.5105 100.736 16.0605C100.145 16.6105 99.264 16.858 98.1082 16.858C96.4847 16.858 95.2052 16.2117 94.9437 14.5892H96.5673C96.7186 15.2905 97.1589 15.5655 98.1495 15.5655C98.8787 15.5655 99.3465 15.3592 99.6217 15.0292C99.8969 14.713 99.9932 14.2592 99.9932 13.778V12.9117C99.5529 13.6405 98.7824 14.0667 97.7918 14.0667C96.0307 14.0667 94.5723 12.6505 94.5723 10.3405C94.5723 8.03043 96.0307 6.62793 97.7918 6.62793C98.7824 6.62793 99.5529 7.05418 99.9932 7.78293ZM100.062 10.3405C100.062 8.69043 99.2089 7.93418 98.1495 7.93418C97.0488 7.93418 96.2783 8.85543 96.2783 10.3405C96.2783 11.8667 97.0488 12.7742 98.1495 12.7742C99.2089 12.7742 100.062 12.0042 100.062 10.3405Z" fill="#060646"/>
<path d="M91.8294 11.2755V10.7118C89.4904 10.9318 88.5411 11.2755 88.5411 12.1143C88.5411 12.7605 89.0777 13.1455 89.9032 13.1455C91.1139 13.1455 91.8294 12.5405 91.8294 11.2755ZM89.5455 14.3693C87.9357 14.3693 86.8075 13.503 86.8075 12.1555C86.8075 10.2993 89.0914 9.85928 91.7881 9.57053V9.43303C91.7881 8.168 91.0727 7.783 90.2472 7.783C89.4216 7.783 88.8025 8.223 88.7612 9.11675H87.1515C87.2615 7.618 88.5136 6.573 90.3022 6.573C92.0771 6.573 93.467 7.38425 93.4258 9.74928C93.4258 10.1068 93.3982 10.9868 93.3982 11.6605C93.3982 12.5955 93.467 13.5718 93.6184 14.1905H92.1183C92.0633 13.8743 92.022 13.6955 91.9807 13.1868C91.4992 13.998 90.6462 14.3693 89.5455 14.3693Z" fill="#060646"/>
<path d="M85.6071 14.1903H83.736V12.3203H85.6071V14.1903Z" fill="#060646"/>
<path d="M78.807 16.5967H78.0641V15.3455H78.6832C79.3986 15.3455 79.7013 15.2905 80.0315 14.328L80.1141 14.1492L77.4312 6.79297H79.2198L80.8983 12.1005L82.5769 6.79297H84.2554L81.6551 14.1767C80.9534 16.088 80.4718 16.5967 78.807 16.5967Z" fill="#060646"/>
<path d="M70.9227 4.22168H72.56V9.76296L75.298 6.79293H77.2655L74.4312 9.83171L77.5819 14.1905H75.6694L73.3442 10.9867L72.56 11.8255V14.1905H70.9227V4.22168Z" fill="#060646"/>
<path d="M69.4455 8.81418H67.9045C67.7257 8.14043 67.1065 7.87918 66.281 7.87918C65.5656 7.87918 64.9052 8.19543 64.9052 8.69043C64.9052 9.18543 65.2491 9.44671 65.8958 9.57046L66.9414 9.77671C68.4411 10.0655 69.5831 10.533 69.5831 11.9767C69.5831 13.5167 68.1247 14.3692 66.4461 14.3692C64.63 14.3692 63.4192 13.3242 63.2404 11.9355H64.8364C64.9877 12.7055 65.5243 13.1317 66.5011 13.1317C67.3679 13.1317 67.9871 12.7742 67.9871 12.1692C67.9871 11.5642 67.4367 11.303 66.7075 11.1517L65.5931 10.9317C64.341 10.6705 63.3642 10.1342 63.3642 8.77293C63.3642 7.46668 64.7813 6.62793 66.3773 6.62793C67.822 6.62793 69.1428 7.32918 69.4455 8.81418Z" fill="#060646"/>
<path d="M59.5609 6.79293V6.33918C59.5609 4.62043 60.2076 4.22168 62.01 4.22168H62.6566V5.47293H62.1888C61.3771 5.47293 61.1982 5.62418 61.1982 6.39418V6.79293H62.6566V7.97543H61.1982V14.1905H59.5609V7.97543H58.5291V6.79293H59.5609Z" fill="#060646"/>
<path d="M55.1136 6.79293V6.33918C55.1136 4.62043 55.7602 4.22168 57.5626 4.22168H58.2093V5.47293H57.7415C56.9297 5.47293 56.7508 5.62418 56.7508 6.39418V6.79293H58.2093V7.97543H56.7508V14.1905H55.1136V7.97543H54.0817V6.79293H55.1136Z" fill="#060646"/>
<path d="M47.8809 10.5055C47.8809 12.2105 48.789 13.0355 49.8346 13.0355C50.8803 13.0355 51.7884 12.2105 51.7884 10.5055C51.7884 8.80043 50.8803 7.96168 49.8346 7.96168C48.789 7.96168 47.8809 8.80043 47.8809 10.5055ZM49.8346 6.62793C51.637 6.62793 53.4807 7.83793 53.4807 10.5055C53.4807 13.1867 51.637 14.3692 49.8346 14.3692C48.0323 14.3692 46.1886 13.1867 46.1886 10.5055C46.1886 7.83793 48.0323 6.62793 49.8346 6.62793Z" fill="#060646"/>
<path d="M43.1982 7.78293V4.22168H44.8355V14.1905H43.1982V13.2142C42.758 13.943 41.9875 14.3692 40.9969 14.3692C39.2358 14.3692 37.7773 12.8705 37.7773 10.4917C37.7773 8.12668 39.2358 6.62793 40.9969 6.62793C41.9875 6.62793 42.758 7.05418 43.1982 7.78293ZM43.267 10.4917C43.267 8.78668 42.414 7.96168 41.3546 7.96168C40.2539 7.96168 39.4834 8.95168 39.4834 10.4917C39.4834 12.073 40.2539 13.0355 41.3546 13.0355C42.414 13.0355 43.267 12.1967 43.267 10.4917Z" fill="#060646"/>
<path d="M36.8577 10.9592H31.3405C31.4505 12.3342 32.4136 13.008 33.3492 13.008C34.216 13.008 34.8764 12.678 35.1653 11.9767H36.7751C36.4449 13.1592 35.3167 14.3692 33.418 14.3692C31.0378 14.3692 29.6757 12.568 29.6757 10.4367C29.6757 8.20918 31.2029 6.62793 33.3079 6.62793C35.5781 6.62793 37.009 8.48418 36.8577 10.9592ZM33.3079 7.90668C32.5375 7.90668 31.4918 8.37418 31.3405 9.76296H35.1929C35.1516 8.60793 34.271 7.90668 33.3079 7.90668Z" fill="#060646"/>
<path d="M28.3283 4.22168V14.1905H26.691V4.22168H28.3283Z" fill="#060646"/>
</g>
</g>
<defs>
<clipPath id="clip0_136_609">
<rect width="133" height="22" fill="white" transform="translate(0.5 0.134766)"/>
</clipPath>
</defs>
</svg>
