<svg xmlns="http://www.w3.org/2000/svg">
	<symbol id="geo" fill="none">
		<path
			d="M11.9983 0C7.20555 0 3.3064 3.89916 3.3064 8.69184C3.3064 14.6397 11.0848 23.3715 11.416 23.7404C11.727 24.0868 12.2701 24.0862 12.5806 23.7404C12.9118 23.3715 20.6902 14.6397 20.6902 8.69184C20.6901 3.89916 16.791 0 11.9983 0ZM11.9983 22.0185C9.38046 18.909 4.87165 12.774 4.87165 8.69194C4.87165 4.76222 8.06862 1.56525 11.9983 1.56525C15.928 1.56525 19.1249 4.76222 19.1249 8.69189C19.1249 12.7741 14.6168 18.908 11.9983 22.0185Z"
			fill="url(#paint0_linear_136_68)" />
		<path
			d="M11.9983 4.31885C9.58696 4.31885 7.62524 6.28061 7.62524 8.69196C7.62524 11.1033 9.58701 13.0651 11.9983 13.0651C14.4096 13.0651 16.3713 11.1033 16.3713 8.69196C16.3713 6.28061 14.4096 4.31885 11.9983 4.31885ZM11.9983 11.4998C10.45 11.4998 9.19049 10.2402 9.19049 8.69196C9.19049 7.14368 10.4501 5.8841 11.9983 5.8841C13.5465 5.8841 14.8061 7.14368 14.8061 8.69196C14.8061 10.2402 13.5465 11.4998 11.9983 11.4998Z"
			fill="url(#paint1_linear_136_68)" />
		<defs>
			<linearGradient id="paint0_linear_136_68" x1="3.3064" y1="12" x2="20.6902" y2="12"
				gradientUnits="userSpaceOnUse">
				<stop offset="0.430248" stop-color="#24C3C2" />
				<stop offset="1" stop-color="#69E7F2" />
			</linearGradient>
			<linearGradient id="paint1_linear_136_68" x1="7.62524" y1="8.69196" x2="16.3713"
				y2="8.69196" gradientUnits="userSpaceOnUse">
				<stop offset="0.430248" stop-color="#24C3C2" />
				<stop offset="1" stop-color="#69E7F2" />
			</linearGradient>
		</defs>
	</symbol>
	<symbol id="tg" viewBox="0 0 22 20" fill="currentColor">
		<path fill-rule="evenodd" clip-rule="evenodd"
			d="M19.7201 0.632801C20.9109 0.125977 22.1874 1.14382 21.9771 2.43247L19.4938 17.6534C19.2543 19.1209 17.6599 19.963 16.328 19.2317C15.2134 18.6197 13.5599 17.6778 12.0696 16.6934C11.3255 16.2018 9.04682 14.6256 9.32691 13.5036C9.56638 12.5442 13.397 8.93953 15.586 6.79581C16.4458 5.95374 16.0542 5.46728 15.0388 6.2426C12.5197 8.16591 8.4753 11.0901 7.13787 11.9131C5.95785 12.6391 5.34174 12.763 4.60684 12.6391C3.26484 12.4131 2.02065 12.063 1.00487 11.6373C-0.368036 11.062 -0.301162 9.15473 1.00394 8.5993L19.7201 0.632801Z"
			 />
		<path fill-rule="evenodd" clip-rule="evenodd"
			d="M19.7201 0.632801C20.9109 0.125977 22.1874 1.14382 21.9771 2.43247L19.4938 17.6534C19.2543 19.1209 17.6599 19.963 16.328 19.2317C15.2134 18.6197 13.5599 17.6778 12.0696 16.6934C11.3255 16.2018 9.04682 14.6256 9.32691 13.5036C9.56638 12.5442 13.397 8.93953 15.586 6.79581C16.4458 5.95374 16.0542 5.46728 15.0388 6.2426C12.5197 8.16591 8.4753 11.0901 7.13787 11.9131C5.95785 12.6391 5.34174 12.763 4.60684 12.6391C3.26484 12.4131 2.02065 12.063 1.00487 11.6373C-0.368036 11.062 -0.301162 9.15473 1.00394 8.5993L19.7201 0.632801Z"
			fill="url(#paint0_radial_136_78)" fill-opacity="0.4" />
		<defs>
			<radialGradient id="paint0_radial_136_78" cx="0" cy="0" r="1"
				gradientUnits="userSpaceOnUse"
				gradientTransform="translate(11 20.5795) rotate(-90) scale(10.5795 30.6588)">
				<stop stop-color="white" />
				<stop offset="0.871869" stop-color="white" stop-opacity="0" />
			</radialGradient>
		</defs>
	</symbol>
	<symbol id="wh" viewBox="0 0 22 22" fill="currentColor">
		<path
			d="M18.8117 3.2145C17.2831 1.68362 15.3345 0.639467 13.212 0.21395C11.0895 -0.211568 8.88836 0.000636426 6.88657 0.823756C4.88478 1.64688 3.17218 3.04398 1.96513 4.83859C0.758068 6.63319 0.1107 8.74478 0.1048 10.9066C0.0809238 12.8212 0.588783 14.7049 1.57201 16.3486L0 22L5.81643 20.4825C7.4213 21.3615 9.22616 21.8121 11.0564 21.7907C13.2154 21.7995 15.3283 21.1677 17.1272 19.9757C18.9261 18.7836 20.33 17.0848 21.1608 15.0949C21.9915 13.1049 22.2118 10.9134 21.7935 8.79833C21.3753 6.68321 20.3375 4.73978 18.8117 3.2145ZM11.0564 19.9592C9.28871 19.9719 7.55671 19.4621 6.07843 18.4941L2.62001 19.436L3.56322 16.087C2.52155 14.5582 1.95634 12.7557 1.93881 10.9066C1.92843 9.10363 2.45434 7.33816 3.44987 5.83399C4.4454 4.32982 5.86573 3.15468 7.53082 2.45752C9.19591 1.76035 11.0308 1.57256 12.8029 1.91795C14.575 2.26333 16.2045 3.12634 17.4848 4.39758C18.7652 5.66882 19.6388 7.29106 19.9949 9.05866C20.3509 10.8263 20.1735 12.6596 19.4849 14.3264C18.7964 15.9932 17.6278 17.4183 16.1273 18.4211C14.6268 19.4239 12.862 19.9592 11.0564 19.9592Z" />
		<path
			d="M18.8117 3.2145C17.2831 1.68362 15.3345 0.639467 13.212 0.21395C11.0895 -0.211568 8.88836 0.000636426 6.88657 0.823756C4.88478 1.64688 3.17218 3.04398 1.96513 4.83859C0.758068 6.63319 0.1107 8.74478 0.1048 10.9066C0.0809238 12.8212 0.588783 14.7049 1.57201 16.3486L0 22L5.81643 20.4825C7.4213 21.3615 9.22616 21.8121 11.0564 21.7907C13.2154 21.7995 15.3283 21.1677 17.1272 19.9757C18.9261 18.7836 20.33 17.0848 21.1608 15.0949C21.9915 13.1049 22.2118 10.9134 21.7935 8.79833C21.3753 6.68321 20.3375 4.73978 18.8117 3.2145ZM11.0564 19.9592C9.28871 19.9719 7.55671 19.4621 6.07843 18.4941L2.62001 19.436L3.56322 16.087C2.52155 14.5582 1.95634 12.7557 1.93881 10.9066C1.92843 9.10363 2.45434 7.33816 3.44987 5.83399C4.4454 4.32982 5.86573 3.15468 7.53082 2.45752C9.19591 1.76035 11.0308 1.57256 12.8029 1.91795C14.575 2.26333 16.2045 3.12634 17.4848 4.39758C18.7652 5.66882 19.6388 7.29106 19.9949 9.05866C20.3509 10.8263 20.1735 12.6596 19.4849 14.3264C18.7964 15.9932 17.6278 17.4183 16.1273 18.4211C14.6268 19.4239 12.862 19.9592 11.0564 19.9592Z"
			fill="url(#paint0_radial_136_80)" fill-opacity="0.4" />
		<path
			d="M16.0345 13.209C15.4267 12.87 14.7964 12.5728 14.1481 12.3194C13.9385 12.2148 13.7289 12.1625 13.5717 12.4241C13.4145 12.6857 12.8381 13.3137 12.6809 13.523C12.6099 13.604 12.5105 13.6547 12.4032 13.6644C12.2958 13.6742 12.1888 13.6422 12.1045 13.5753C11.3015 13.2447 10.5581 12.7851 9.90365 12.2148C9.30268 11.669 8.79006 11.0336 8.38404 10.331C8.35501 10.2903 8.33463 10.2441 8.32417 10.1952C8.3137 10.1463 8.31337 10.0958 8.32318 10.0468C8.333 9.99773 8.35276 9.95124 8.38125 9.91013C8.40974 9.86903 8.44636 9.83418 8.48884 9.80774L8.90804 9.28446C9.01389 9.15737 9.10203 9.01655 9.17004 8.86584C9.21144 8.79425 9.23323 8.71304 9.23323 8.63037C9.23323 8.5477 9.21144 8.46649 9.17004 8.3949C9.06524 8.23792 8.54124 6.92973 8.33164 6.35413C8.12204 5.77853 7.86004 5.88319 7.70284 5.88319H7.17883C7.03611 5.88108 6.89497 5.91326 6.76731 5.977C6.63964 6.04075 6.52918 6.1342 6.44523 6.24948C6.13261 6.53267 5.88609 6.88099 5.72311 7.26979C5.56013 7.6586 5.48465 8.07841 5.50203 8.49955C5.59338 9.52652 5.975 10.5064 6.60243 11.3252C6.75963 11.4822 8.54124 14.2556 11.2661 15.4068C11.77 15.6493 12.2965 15.842 12.8381 15.9824C13.3953 16.1679 13.9916 16.204 14.5673 16.087C15.0913 16.0347 16.1917 15.4591 16.4013 14.8312C16.6109 14.2032 16.6633 13.6276 16.5585 13.523C16.417 13.371 16.2353 13.2622 16.0345 13.209Z" />
		<path
			d="M16.0345 13.209C15.4267 12.87 14.7964 12.5728 14.1481 12.3194C13.9385 12.2148 13.7289 12.1625 13.5717 12.4241C13.4145 12.6857 12.8381 13.3137 12.6809 13.523C12.6099 13.604 12.5105 13.6547 12.4032 13.6644C12.2958 13.6742 12.1888 13.6422 12.1045 13.5753C11.3015 13.2447 10.5581 12.7851 9.90365 12.2148C9.30268 11.669 8.79006 11.0336 8.38404 10.331C8.35501 10.2903 8.33463 10.2441 8.32417 10.1952C8.3137 10.1463 8.31337 10.0958 8.32318 10.0468C8.333 9.99773 8.35276 9.95124 8.38125 9.91013C8.40974 9.86903 8.44636 9.83418 8.48884 9.80774L8.90804 9.28446C9.01389 9.15737 9.10203 9.01655 9.17004 8.86584C9.21144 8.79425 9.23323 8.71304 9.23323 8.63037C9.23323 8.5477 9.21144 8.46649 9.17004 8.3949C9.06524 8.23792 8.54124 6.92973 8.33164 6.35413C8.12204 5.77853 7.86004 5.88319 7.70284 5.88319H7.17883C7.03611 5.88108 6.89497 5.91326 6.76731 5.977C6.63964 6.04075 6.52918 6.1342 6.44523 6.24948C6.13261 6.53267 5.88609 6.88099 5.72311 7.26979C5.56013 7.6586 5.48465 8.07841 5.50203 8.49955C5.59338 9.52652 5.975 10.5064 6.60243 11.3252C6.75963 11.4822 8.54124 14.2556 11.2661 15.4068C11.77 15.6493 12.2965 15.842 12.8381 15.9824C13.3953 16.1679 13.9916 16.204 14.5673 16.087C15.0913 16.0347 16.1917 15.4591 16.4013 14.8312C16.6109 14.2032 16.6633 13.6276 16.5585 13.523C16.417 13.371 16.2353 13.2622 16.0345 13.209Z"
			fill="url(#paint1_radial_136_80)" fill-opacity="0.4" />
		<defs>
			<radialGradient id="paint0_radial_136_80" cx="0" cy="0" r="1"
				gradientUnits="userSpaceOnUse"
				gradientTransform="translate(11 23.25) rotate(-90) scale(12.25 30.6588)">
				<stop stop-color="white" />
				<stop offset="0.871869" stop-color="white" stop-opacity="0" />
			</radialGradient>
			<radialGradient id="paint1_radial_136_80" cx="0" cy="0" r="1"
				gradientUnits="userSpaceOnUse"
				gradientTransform="translate(11 23.25) rotate(-90) scale(12.25 30.6588)">
				<stop stop-color="white" />
				<stop offset="0.871869" stop-color="white" stop-opacity="0" />
			</radialGradient>
		</defs>
	</symbol>
	<symbol id="tel" viewBox="0 0 18 18" fill="none">
		<path
			d="M17.3174 12.9113C17.2688 12.8728 13.7411 10.33 12.7728 10.5125C12.3106 10.5943 12.0463 10.9095 11.516 11.5407C11.4306 11.6426 11.2256 11.8867 11.0662 12.0604C10.731 11.951 10.404 11.818 10.0878 11.6621C8.45551 10.8675 7.1367 9.54866 6.34203 7.91637C6.1861 7.60014 6.05301 7.27318 5.94381 6.93799C6.11803 6.77799 6.36218 6.57296 6.46647 6.48525C7.09462 5.95785 7.41047 5.69355 7.49225 5.23014C7.65996 4.27014 5.11892 0.718143 5.09225 0.686143C4.97696 0.521447 4.8265 0.384432 4.65176 0.285017C4.47702 0.185602 4.28236 0.126276 4.08188 0.111328C3.05196 0.111328 0.111511 3.92585 0.111511 4.56822C0.111511 4.60555 0.165437 8.40051 4.84514 13.1608C9.6007 17.8352 13.3951 17.8891 13.4324 17.8891C14.0754 17.8891 17.8893 14.9487 17.8893 13.9187C17.8745 13.719 17.8155 13.525 17.7166 13.3507C17.6177 13.1765 17.4814 13.0264 17.3174 12.9113Z"
			fill="white" />
	</symbol>
	<symbol id="triangle" viewBox="0 0 14 12" fill="none">
		<path
			d="M5.76394 1.29791C6.35996 0.430967 7.64004 0.430968 8.23606 1.29791L13.6345 9.15021C14.3188 10.1455 13.6062 11.5 12.3985 11.5L1.60154 11.5C0.393774 11.5 -0.318755 10.1455 0.365482 9.1502L5.76394 1.29791Z"
			fill="#060646" />
	</symbol>
	<symbol id="arr" viewBox="0 0 18 16" fill="none">
		<path
			d="M9.18282 15.5345C8.75982 15.9504 8.07376 15.9504 7.6508 15.5345L0.757294 8.75281C0.334571 8.33677 0.334571 7.66316 0.757294 7.24712L7.6508 0.465388C8.07376 0.049512 8.75982 0.0495665 9.18282 0.465389C9.60581 0.881439 9.60571 1.55619 9.18282 1.9723L4.13746 6.93497L16.4771 6.93497C17.0753 6.93497 17.5598 7.41151 17.5598 7.99997C17.5598 8.58842 17.0753 9.06497 16.4771 9.06497L4.13746 9.06497L9.18282 14.0276C9.60571 14.4437 9.60581 15.1185 9.18282 15.5345Z"
			fill="black" />
	</symbol>
</svg>