<svg width="30" height="30" viewBox="0 0 30 30" fill="none" xmlns="http://www.w3.org/2000/svg">
<path d="M25.6055 15.7117H22.6689C22.2692 15.7117 21.8822 15.7663 21.514 15.8668C20.7875 14.4387 19.3044 13.4575 17.5954 13.4575H12.4046C10.6956 13.4575 9.21246 14.4387 8.48602 15.8668C8.10967 15.7639 7.72128 15.7118 7.33113 15.7117H4.39453C1.97139 15.7117 0 17.6831 0 20.1063V24.8007C0 26.2546 1.18283 27.4374 2.63672 27.4374H27.3633C28.8172 27.4374 30 26.2546 30 24.8007V20.1063C30 17.6831 28.0286 15.7117 25.6055 15.7117ZM8.01006 17.8522V25.6796H2.63672C2.15209 25.6796 1.75781 25.2854 1.75781 24.8007V20.1063C1.75781 18.6524 2.94064 17.4696 4.39453 17.4696H7.33113C7.56973 17.4696 7.80076 17.502 8.02072 17.5617C8.01398 17.6584 8.01043 17.7553 8.01006 17.8522ZM20.2321 25.6796H9.76787V17.8521C9.76787 16.3982 10.9507 15.2154 12.4046 15.2154H17.5954C19.0493 15.2154 20.2321 16.3982 20.2321 17.8521V25.6796ZM28.2422 24.8007C28.2422 25.2854 27.8479 25.6796 27.3633 25.6796H21.9899V17.8521C21.9896 17.7552 21.986 17.6583 21.9793 17.5617C22.2041 17.5006 22.4359 17.4696 22.6689 17.4696H25.6055C27.0594 17.4696 28.2422 18.6524 28.2422 20.1063V24.8007Z" fill="url(#paint0_linear_136_94)"/>
<path d="M5.8628 7.41211C3.70954 7.41211 1.95776 9.16389 1.95776 11.3171C1.95771 13.4704 3.70954 15.2222 5.8628 15.2222C8.01601 15.2222 9.76784 13.4704 9.76784 11.3171C9.76784 9.16389 8.01606 7.41211 5.8628 7.41211ZM5.86274 13.4644C4.67874 13.4644 3.71552 12.5012 3.71552 11.3171C3.71552 10.1331 4.67874 9.16992 5.86274 9.16992C7.04675 9.16992 8.00997 10.1331 8.00997 11.3171C8.00997 12.5012 7.04675 13.4644 5.86274 13.4644ZM14.9999 2.56201C12.1232 2.56201 9.78284 4.90236 9.78284 7.77908C9.78284 10.6558 12.1232 12.9962 14.9999 12.9962C17.8766 12.9962 20.217 10.6558 20.217 7.77908C20.217 4.90242 17.8766 2.56201 14.9999 2.56201ZM14.9999 11.2383C13.0925 11.2383 11.5407 9.68654 11.5407 7.77908C11.5407 5.87168 13.0925 4.31982 14.9999 4.31982C16.9074 4.31982 18.4592 5.87162 18.4592 7.77908C18.4592 9.68654 16.9074 11.2383 14.9999 11.2383ZM24.137 7.41211C21.9838 7.41211 20.232 9.16389 20.232 11.3171C20.232 13.4704 21.9838 15.2222 24.137 15.2222C26.2903 15.2222 28.0421 13.4704 28.0421 11.3171C28.0421 9.16389 26.2903 7.41211 24.137 7.41211ZM24.137 13.4644C22.9531 13.4644 21.9898 12.5012 21.9898 11.3171C21.9899 10.1331 22.9531 9.16992 24.137 9.16992C25.321 9.16992 26.2842 10.1331 26.2842 11.3171C26.2842 12.5012 25.321 13.4644 24.137 13.4644Z" fill="url(#paint1_linear_136_94)"/>
<defs>
<linearGradient id="paint0_linear_136_94" x1="0" y1="20.4475" x2="30" y2="20.4475" gradientUnits="userSpaceOnUse">
<stop offset="0.430248" stop-color="#24C3C2"/>
<stop offset="1" stop-color="#69E7F2"/>
</linearGradient>
<linearGradient id="paint1_linear_136_94" x1="1.95776" y1="8.8921" x2="28.0421" y2="8.8921" gradientUnits="userSpaceOnUse">
<stop offset="0.430248" stop-color="#24C3C2"/>
<stop offset="1" stop-color="#69E7F2"/>
</linearGradient>
</defs>
</svg>
