<svg width="30" height="30" viewBox="0 0 30 30" fill="none" xmlns="http://www.w3.org/2000/svg">
<g clip-path="url(#clip0_136_100)">
<path d="M24.7366 2.15213L15.6758 0.0871668C15.2127 -0.000437906 14.7496 -0.000438213 14.2616 0.0996815L5.30085 2.15213C4.50724 2.30967 3.79281 2.73754 3.27934 3.36284C2.76587 3.98813 2.48514 4.77213 2.48499 5.58123V17.7708C2.48499 19.623 3.31097 21.3501 4.6751 22.4389L11.1954 28.6964C12.3092 29.5849 13.6233 30.0229 14.9499 30.0229C16.314 30.0229 17.6907 29.5599 18.8546 28.6213L25.2622 22.4764C25.9636 21.9094 26.529 21.1924 26.9167 20.378C27.3044 19.5637 27.5045 18.6727 27.5024 17.7708L27.5149 5.58123C27.5149 3.91674 26.326 2.47752 24.7366 2.15213ZM24.9994 17.7708C24.9994 18.8596 24.5113 19.8733 23.6603 20.5616C23.6227 20.5867 23.5977 20.6117 23.5727 20.6367L17.2026 26.744C15.901 27.7828 14.0738 27.7828 12.8474 26.8191L6.32708 20.5616C5.90882 20.2267 5.57129 19.8019 5.33949 19.3188C5.10768 18.8357 4.98755 18.3066 4.98798 17.7708V5.58123C4.98798 5.10566 5.32588 4.69267 5.82648 4.59255L14.7872 2.5401C14.8623 2.52758 14.9249 2.52758 14.9999 2.52758C15.05 2.52758 15.1001 2.52758 15.1501 2.5401L24.211 4.60507C24.674 4.69267 25.0119 5.10566 25.0119 5.58123L24.9994 17.7708Z" fill="url(#paint0_linear_136_100)"/>
<path d="M21.3073 13.7409C21.3073 14.4292 20.7441 14.9924 20.0558 14.9924H16.2513V18.7468C16.2513 19.4352 15.6881 19.9983 14.9998 19.9983C14.3114 19.9983 13.7483 19.4352 13.7483 18.7468V14.9924H10.0939C9.40558 14.9924 8.84241 14.4292 8.84241 13.7409C8.84241 13.0525 9.40558 12.4894 10.0939 12.4894H13.7483V8.83499C13.7483 8.14667 14.3114 7.5835 14.9998 7.5835C15.6881 7.5835 16.2513 8.14667 16.2513 8.83499V12.4894H20.0558C20.7441 12.4894 21.3073 13.0525 21.3073 13.7409Z" fill="url(#paint1_linear_136_100)"/>
</g>
<defs>
<linearGradient id="paint0_linear_136_100" x1="2.48499" y1="15.0229" x2="27.5149" y2="15.0229" gradientUnits="userSpaceOnUse">
<stop offset="0.430248" stop-color="#24C3C2"/>
<stop offset="1" stop-color="#69E7F2"/>
</linearGradient>
<linearGradient id="paint1_linear_136_100" x1="8.84241" y1="13.7909" x2="21.3073" y2="13.7909" gradientUnits="userSpaceOnUse">
<stop offset="0.430248" stop-color="#24C3C2"/>
<stop offset="1" stop-color="#69E7F2"/>
</linearGradient>
<clipPath id="clip0_136_100">
<rect width="30" height="30" fill="white"/>
</clipPath>
</defs>
</svg>
