<svg width="30" height="30" viewBox="0 0 30 30" fill="none" xmlns="http://www.w3.org/2000/svg">
<g clip-path="url(#clip0_136_106)">
<path fill-rule="evenodd" clip-rule="evenodd" d="M9.86924 8.56323C10.5362 8.41672 11.3204 8.37207 12.2092 8.37207H17.7906C18.6795 8.37207 19.4637 8.41672 20.1306 8.56323C20.8088 8.71254 21.4297 8.98184 21.9223 9.473C22.4148 9.96416 22.6827 10.5865 22.832 11.2646C22.9785 11.9316 23.0232 12.7158 23.0232 13.6046V28.9535C23.0232 29.231 22.9129 29.4972 22.7167 29.6935C22.5204 29.8897 22.2542 30 21.9767 30H8.0232C7.74564 30 7.47946 29.8897 7.2832 29.6935C7.08694 29.4972 6.97668 29.231 6.97668 28.9535V13.6046C6.97668 12.7158 7.02134 11.9316 7.16785 11.2646C7.31715 10.5865 7.58645 9.96556 8.07761 9.473C8.56878 8.98044 9.1911 8.71254 9.86924 8.56323ZM9.21343 11.7139C9.11575 12.1563 9.06971 12.7604 9.06971 13.6046V27.907H20.9302V13.6046C20.9302 12.7618 20.8841 12.1563 20.7878 11.7139C20.693 11.2828 20.5646 11.0735 20.4418 10.9535C20.3218 10.8321 20.1125 10.7023 19.6813 10.6074C19.239 10.5097 18.6348 10.4651 17.7906 10.4651H12.2092C11.3665 10.4651 10.7623 10.5097 10.3185 10.6074C9.88738 10.7023 9.67948 10.8307 9.55808 10.9535C9.43669 11.0763 9.30831 11.2828 9.21343 11.7139Z" fill="url(#paint0_linear_136_106)"/>
<path fill-rule="evenodd" clip-rule="evenodd" d="M12.5582 14.9999C12.5582 14.7224 12.6684 14.4562 12.8647 14.2599C13.061 14.0637 13.3271 13.9534 13.6047 13.9534H16.3954C16.6729 13.9534 16.9391 14.0637 17.1354 14.2599C17.3316 14.4562 17.4419 14.7224 17.4419 14.9999C17.4419 15.2775 17.3316 15.5437 17.1354 15.7399C16.9391 15.9362 16.6729 16.0464 16.3954 16.0464H13.6047C13.3271 16.0464 13.061 15.9362 12.8647 15.7399C12.6684 15.5437 12.5582 15.2775 12.5582 14.9999ZM12.5582 19.186C12.5582 18.9084 12.6684 18.6422 12.8647 18.446C13.061 18.2497 13.3271 18.1395 13.6047 18.1395H16.3954C16.6729 18.1395 16.9391 18.2497 17.1354 18.446C17.3316 18.6422 17.4419 18.9084 17.4419 19.186C17.4419 19.4635 17.3316 19.7297 17.1354 19.926C16.9391 20.1222 16.6729 20.2325 16.3954 20.2325H13.6047C13.3271 20.2325 13.061 20.1222 12.8647 19.926C12.6684 19.7297 12.5582 19.4635 12.5582 19.186ZM12.5582 23.372C12.5582 23.0945 12.6684 22.8283 12.8647 22.632C13.061 22.4358 13.3271 22.3255 13.6047 22.3255H16.3954C16.6729 22.3255 16.9391 22.4358 17.1354 22.632C17.3316 22.8283 17.4419 23.0945 17.4419 23.372C17.4419 23.6496 17.3316 23.9158 17.1354 24.112C16.9391 24.3083 16.6729 24.4185 16.3954 24.4185H13.6047C13.3271 24.4185 13.061 24.3083 12.8647 24.112C12.6684 23.9158 12.5582 23.6496 12.5582 23.372ZM17.6498 0.0627224C18.0433 0.152025 18.4647 0.337606 18.8917 0.553885L24.9949 3.67109C25.7065 4.03389 26.3107 4.34226 26.7838 4.65063C27.2889 4.97854 27.7186 5.3497 28.0368 5.87575C28.3535 6.4004 28.4861 6.95575 28.5475 7.55854C28.6047 8.12505 28.6047 8.81435 28.6047 9.62644V28.9534C28.6047 29.231 28.4944 29.4972 28.2982 29.6934C28.1019 29.8897 27.8357 29.9999 27.5582 29.9999C27.2806 29.9999 27.0144 29.8897 26.8182 29.6934C26.6219 29.4972 26.5117 29.231 26.5117 28.9534V9.67807C26.5117 8.799 26.5117 8.21854 26.4642 7.76923C26.4224 7.34226 26.3456 7.12458 26.2465 6.95993C26.1475 6.79668 25.994 6.63342 25.6438 6.40598C25.2726 6.16458 24.7675 5.90365 23.9972 5.51296L17.9386 2.41807C17.7832 2.33747 17.6245 2.26345 17.4628 2.19621C17.4489 2.33993 17.4419 2.52412 17.4419 2.76133V9.00412C17.4419 9.28167 17.3316 9.54785 17.1354 9.74411C16.9391 9.94037 16.6729 10.0506 16.3954 10.0506C16.1178 10.0506 15.8516 9.94037 15.6554 9.74411C15.4591 9.54785 15.3489 9.28167 15.3489 9.00412V2.76272C15.3489 2.2883 15.374 1.83482 15.4647 1.44551C15.5526 1.06598 15.7452 0.570629 16.2293 0.258071C16.7219 -0.0614636 17.2591 -0.0251845 17.6498 0.0627224ZM3.49957 16.0576C3.49113 16.17 3.4874 16.2826 3.48841 16.3953V28.9534C3.48841 29.231 3.37815 29.4972 3.18189 29.6934C2.98563 29.8897 2.71945 29.9999 2.4419 29.9999C2.16435 29.9999 1.89816 29.8897 1.7019 29.6934C1.50564 29.4972 1.39539 29.231 1.39539 28.9534V16.3953C1.39539 16.0841 1.40934 15.7618 1.47492 15.466C1.54329 15.1576 1.67864 14.813 1.96608 14.5241C2.25353 14.2353 2.59957 14.1013 2.90794 14.033C3.20376 13.9688 3.52608 13.9534 3.83725 13.9534H8.02329C8.30084 13.9534 8.56703 14.0637 8.76329 14.2599C8.95955 14.4562 9.0698 14.7224 9.0698 14.9999C9.0698 15.2775 8.95955 15.5437 8.76329 15.7399C8.56703 15.9362 8.30084 16.0464 8.02329 16.0464H3.83725C3.72458 16.0454 3.61192 16.0491 3.49957 16.0576Z" fill="url(#paint1_linear_136_106)"/>
<path fill-rule="evenodd" clip-rule="evenodd" d="M0 28.9532C0 28.6757 0.110257 28.4095 0.306516 28.2133C0.502775 28.017 0.768959 27.9067 1.04651 27.9067H28.9535C29.231 27.9067 29.4972 28.017 29.6935 28.2133C29.8897 28.4095 30 28.6757 30 28.9532C30 29.2308 29.8897 29.497 29.6935 29.6932C29.4972 29.8895 29.231 29.9998 28.9535 29.9998H1.04651C0.768959 29.9998 0.502775 29.8895 0.306516 29.6932C0.110257 29.497 0 29.2308 0 28.9532Z" fill="url(#paint2_linear_136_106)"/>
</g>
<defs>
<linearGradient id="paint0_linear_136_106" x1="6.97668" y1="19.186" x2="23.0232" y2="19.186" gradientUnits="userSpaceOnUse">
<stop offset="0.430248" stop-color="#24C3C2"/>
<stop offset="1" stop-color="#69E7F2"/>
</linearGradient>
<linearGradient id="paint1_linear_136_106" x1="1.39539" y1="15.0007" x2="28.6047" y2="15.0007" gradientUnits="userSpaceOnUse">
<stop offset="0.430248" stop-color="#24C3C2"/>
<stop offset="1" stop-color="#69E7F2"/>
</linearGradient>
<linearGradient id="paint2_linear_136_106" x1="0" y1="28.9532" x2="30" y2="28.9532" gradientUnits="userSpaceOnUse">
<stop offset="0.430248" stop-color="#24C3C2"/>
<stop offset="1" stop-color="#69E7F2"/>
</linearGradient>
<clipPath id="clip0_136_106">
<rect width="30" height="30" fill="white"/>
</clipPath>
</defs>
</svg>
